<?xml version="1.0" ?><svg viewBox="0 0 100 100" xmlns="http://www.w3.org/2000/svg"><path d="M48.26123,44.64063A1.76587,1.76587,0,1,0,50.02734,42.875,1.76838,1.76838,0,0,0,48.26123,44.64063Zm2.82275,0A1.05688,1.05688,0,1,1,50.02734,43.584,1.05809,1.05809,0,0,1,51.084,44.64063Zm-27.69287,21.21h-.709V62.814h.709Zm13.15625,0h-.709V62.814h.709Zm40.77051,0h-.709V62.814h.709Zm-13.15625,0h-.709V62.814h.709ZM79.61707,34.09131h.08606a1.981,1.981,0,0,0,0-3.96191,1.961,1.961,0,0,0-.37061.03516,2.53779,2.53779,0,0,0-3.92316-.53784,37.84994,37.84994,0,0,0-17.42523-8.93988,10.8768,10.8768,0,0,0-4.65991-2.74811V15.08838h-.84668v-3.7041h.84668v-.709H51.7915V7.80908H50.3584V4.15674h-.709V7.80908H48.21631v2.86621H46.78906v.709h.84668v3.7041h-.84668v2.92145a10.80861,10.80861,0,0,0-4.43213,2.60394A38.05212,38.05212,0,0,0,17.773,37.77539,4.803,4.803,0,0,0,13.58545,40.334a3.66628,3.66628,0,1,0-.94141,7.21h.83862A37.91025,37.91025,0,0,0,80.22522,80.646h.02771v-.03522a37.86277,37.86277,0,0,0-.63586-46.51947Zm-4.23865-3.04639a1.82743,1.82743,0,0,1,3.44824-.31934l.13428.30225.31055-.11328a1.27161,1.27161,0,1,1,.43164,2.46777H74.499a1.08374,1.08374,0,1,1,.40381-2.08936l.38135.15088ZM60.26184,27.4502H58.39911a11.15494,11.15494,0,0,0-3.62537-8.19263A9.62074,9.62074,0,0,1,60.26184,27.4502Zm.90662,32.124-.81641-2.09717H80.47266l-.81641,2.09717Zm18.37549.709v8.13916H74.38232V60.2832ZM70.75,63.49072V60.2832h2.92334v3.20752Zm2.92334.709v4.22266H70.75V64.19971Zm-6.59717-.709V60.2832H70.041v3.20752Zm2.96484.709v4.22266H67.07617V64.19971Zm-3.67383-3.9165v8.13916H61.24707V60.2832Zm-26.90527.4873v-.8418H39.454l.955-2.45166H59.59106l.955,2.45166h-.00793v.8418Zm21.07617.709v6.94287h-1.168a11.22392,11.22392,0,0,0-18.72382,0H39.46191V61.47949ZM20.34375,59.57422l-.81641-2.09717H39.64795l-.81641,2.09717Zm18.40918.709v8.13916H33.63281V60.2832ZM29.959,63.49072V60.2832h2.96484v3.20752Zm2.96484.709v4.22266H29.959V64.19971Zm-6.59717-.709V60.2832H29.25v3.20752Zm2.92334.709v4.22266H26.32666V64.19971Zm-3.63232-3.9165v8.13916H20.45605V60.2832Zm52.64551-3.51514H22.05371v-1.958H78.26318ZM39.67212,50.0918l.79321-2.09131H59.59106l.81458,2.09131Zm20.91675.71484v3.29443H57.66064V50.80664Zm-3.63721,0v3.29443H54.02344V50.80664Zm-3.63721,0v3.29443H50.38623V50.80664Zm-3.63721,0v3.29443H46.749V50.80664Zm-3.63721,0v3.29443H43.11182V50.80664Zm-3.63721,0v3.29443H39.48242V50.80664ZM38.888,50.0918H34.551l-.81415-2.09131h5.96533Zm-.12189.71484v3.29443H34.71094V50.80664Zm22.56006,3.29443V50.80664h4.0625v3.29443Zm4.17706-4.00928H61.19781L60.358,48.00049h5.95941ZM34.59167,47.2915,50.16211,41.314l15.3407,5.97754ZM35.83691,46.054V39.021h2.11816v6.21985Zm2.82715-1.08527V39.021h3.18213v4.7262ZM42.55518,43.475V39.021h4.24707v2.82373Zm4.95605-1.90247V39.021h5.14453v2.50409l-2.4917-.97089Zm5.85352.22876V39.021h4.24707v4.43518Zm4.95605,1.93115V39.021h3.18213v5.95135Zm3.89111,1.51611V39.021h2.11768v7.0528ZM64.32959,38.312H35.83691v-1.9126H64.32959ZM38.66406,35.69043V30.78125h3.18213v4.90918Zm3.89111,0V30.78125h4.24707v4.90918Zm4.95605,0V30.78125h5.14453v4.90918Zm5.85352,0V30.78125h4.24707v4.90918Zm8.13818,0H58.3208V30.78125h3.18213Zm-1.2207-5.61816H40.05371V28.15918H60.28223ZM47.6,27.4502c.04987-4.87714,1.108-8.26141,2.12738-9.06445h.88788c1.02313.80322,2.07831,4.17224,2.12793,9.06445Zm10.09027,0H53.45239c-.04114-4.05334-.78046-7.514-1.88776-9.06445h.08551C55.06763,19.25562,57.56213,23.02948,57.69031,27.4502Zm-8.765-18.93213h2.15723v2.15723H48.92529Zm2.84326,2.86621v3.69287H48.34473V11.38428ZM47.498,15.79736h5.11719v1.87939H47.498Zm1.209,2.58838h.07074c-1.10565,1.55164-1.84564,5.02136-1.8869,9.06445H42.653C42.78058,23.00677,45.27686,19.24994,48.707,18.38574Zm-3.128.85767a11.11918,11.11918,0,0,0-3.63483,8.20679H40.06445A9.57487,9.57487,0,0,1,45.579,19.24341ZM12.644,46.835a2.95679,2.95679,0,1,1,1.00684-5.73877l.30957.11182.13428-.30078a4.08751,4.08751,0,0,1,7.7124.71875l.09473.40186.3833-.15479a2.545,2.545,0,0,1,.95557-.18555,2.57373,2.57373,0,1,1,0,5.14746Zm.13867,10.93457A37.27172,37.27172,0,0,1,14.214,47.54395h9.02673a3.28272,3.28272,0,1,0-.84717-6.45361,4.768,4.768,0,0,0-3.81244-3.259A37.34532,37.34532,0,0,1,41.58728,21.51984a9.99315,9.99315,0,0,0-2.23187,5.93036l-.00171.015-.009.21387v2.39325h-2.019v.709h.62939v4.90918H34.57568v.709h.55225v9.9267l-2.42822.96539L34.002,50.63489v3.46619H21.34473v2.667H18.49023l1.25684,3.22681v8.42749H18.49023l1.093,2.80664H15.31189A37.0089,37.0089,0,0,1,12.78271,57.76953Zm6.96436,21.63623A37.18672,37.18672,0,0,1,15.592,71.938h4.15509Zm5.84961,1.062v5.3653q-1.14386-.996-2.20557-2.0791V74.14355h-.709v8.86688q-1.17334-1.26883-2.22607-2.64441V71.938h5.14063ZM29.25,88.6499q-1.52728-1.0296-2.94434-2.20251V83.84375H29.25Zm3.67383,2.1709q-1.52509-.79111-2.96484-1.716v-5.261h2.96484Zm0-7.686H26.30566v-1.958h6.61816ZM29.25,75.85449v4.61328H26.30566V75.85449Zm-2.94434-.709V71.938H29.25v3.20752Zm6.61816,5.32227H29.959V75.85449h2.96484Zm0-5.32227H29.959V71.938h2.96484Zm5.8479-.64746h-.0188V93.24518c-.74658-.23718-1.4801-.50287-2.20557-.78522V74.14355h-.709V92.17987q-1.12143-.46326-2.20557-.99548V83.84375h.0166v-3.376h-.0166V71.938H39.1059A11.19685,11.19685,0,0,0,38.77173,74.498Zm-18.428-3.269-.81641-2.09766H40.215a11.17189,11.17189,0,0,0-.92938,2.12579V71.229Zm25.5752,23.529a36.97424,36.97424,0,0,1-4.22852-.71851V86.40723h4.22852Zm3.65332.21747q-1.48682-.01685-2.94434-.149V90.32373h2.94434Zm0-5.36072H46.62793V86.40723h2.94434Zm3.67383,5.22131c-.97845.085-1.96643.13568-2.96484.14313V90.32373h2.96484Zm0-5.22131H50.28125V86.40723h2.96484Zm5.08936,4.41876a36.97057,36.97057,0,0,1-4.38037.74054V86.40723h4.38037Zm0-8.33527h-16.645V83.69092h16.645Zm-.6792-13.96631a8.25627,8.25627,0,0,1,.57281,2.02295H41.79681a8.25627,8.25627,0,0,1,.57281-2.02295Zm-14.94061-.709a8.37827,8.37827,0,0,1,3.20331-3.242v3.242Zm3.91229,0V67.42249a8.27942,8.27942,0,0,1,6.63477-.06519v3.66565Zm7.34375,0V67.6994a8.38143,8.38143,0,0,1,3.3385,3.32355ZM50.28125,77.5957V74.46387h2.96484V77.5957Zm2.96484.709v4.67725H50.28125V78.30469Zm-6.61816-.709V74.46387h2.94434V77.5957Zm2.94434.709v4.67725H46.62793V78.30469Zm-3.65332-3.84082v8.51807H41.69043V75.01855c0-.18726.01587-.37048.02808-.55469Zm12.4165,8.51807H53.95508V74.46387h4.35229c.01221.1842.02808.36743.02808.55469ZM60.53809,74.498V93.45746c-.49426.14624-.99109.28607-1.49365.412v-18.851a9.03149,9.03149,0,1,0-18.063,0V93.87549c-.50726-.12677-1.009-.26733-1.50781-.41473V74.6377a10.53948,10.53948,0,0,1,21.05664-.68506c.01129.18036.015.36279.01752.54541Zm5.8291,5.96973h-.0166v3.376h.0166v7.34064q-1.08344.53284-2.20557.99548V74.14355h-.709V92.46c-.72083.28052-1.44971.54437-2.19141.7804V74.6377q0-.36694-.02295-.72949a11.18227,11.18227,0,0,0-.311-1.97021h5.43988Zm3.67383,8.637q-1.4393.92368-2.96484,1.716V83.84375H70.041Zm3.65332-2.65741Q72.279,87.61871,70.75,88.6499V83.84375h2.94434Zm0-3.31262H67.07617v-1.958h6.61816ZM70.041,75.85449v4.61328H67.07617V75.85449Zm-2.96484-.709V71.938H70.041v3.20752Zm6.61816,5.32227H70.75V75.85449h2.94434Zm0-5.32227H70.75V71.938h2.94434ZM79.54395,80.366q-1.053,1.37338-2.22607,2.64441V74.498h-.709V83.754q-1.05936,1.08453-2.20557,2.0791V71.938h5.14063Zm.1123-9.137h-18.916v.0603a11.14784,11.14784,0,0,0-.93213-2.158H80.47266Zm.59668,8.17676V71.938H84.408A37.18672,37.18672,0,0,1,80.25293,79.40576Zm.16382-8.17676,1.093-2.80664H80.25293V59.99487l1.25684-3.22681h-2.5376v-2.667H66.09766V50.51831l1.25684-3.22681L65.03857,46.35V36.39941h.55225v-.709H62.21191V30.78125h.46973v-.709H60.99121l-.02032-2.62207a9.99235,9.99235,0,0,0-2.16626-5.82977A37.14413,37.14413,0,0,1,74.96783,30.1817a2.53084,2.53084,0,0,0-.17.34955,1.81644,1.81644,0,0,0-2.09277,1.76758A1.79526,1.79526,0,0,0,74.499,34.09131h4.21149a37.16276,37.16276,0,0,1,5.9776,37.1377Z"/></svg>