<?xml version="1.0" ?><svg viewBox="0 0 100 100" xmlns="http://www.w3.org/2000/svg"><path d="M80.36768,34.20508a6.845,6.845,0,1,0-8.92237-8.63971,37.70189,37.70189,0,0,0-45.06439,1.59869V15.96H19.6665V9.78027h1.32282v-.709H19.6665V7.63177h-.709V9.07129H17.584v.709h1.37354V15.96H12.24316v41.0058h.00922c.20068,20.6416,17.63721,38.01269,38.26318,38.01269a36.23146,36.23146,0,0,0,4.98731-.35449h.14752v-.01947A37.08392,37.08392,0,0,0,80.77051,78.916h.03656v-.05267a38.95508,38.95508,0,0,0,6.9292-22.25592A37.42246,37.42246,0,0,0,80.36768,34.20508ZM77.91852,21.68066a6.13048,6.13048,0,0,1,2.5058,11.73041c.002-.04486.01367-.08789.01367-.13379a3.64847,3.64847,0,0,0-3.64447-3.64447,3.68963,3.68963,0,0,0-.93561.1192A4.77125,4.77125,0,0,0,71.813,27.21777,6.11612,6.11612,0,0,1,77.91852,21.68066ZM71.64008,27.915a4.06651,4.06651,0,0,1,3.70849,2.41022l.13434.30078.30957-.11139a2.93724,2.93724,0,1,1,1.001,5.69928H66.26117a2.55616,2.55616,0,1,1,.94922-4.9278l.38342.15534.09467-.40235A4.04231,4.04231,0,0,1,71.64008,27.915ZM26.38092,47.01758a1.64715,1.64715,0,0,1,.67566.10248l.38245.15435.09515-.40142a2.78419,2.78419,0,0,1,.2168-.59662,2.72663,2.72663,0,0,1,4.92584.11718l.13415.30072.31012-.1123a1.942,1.942,0,1,1,.66059,3.76862H26.38092Zm-5.49475-30.3487h1.78131V27.2793H20.88617Zm-2.49017,0h1.78119V27.2793H18.396Zm-2.49018,0H17.687V27.2793H15.90582Zm-2.95373,0h2.24469V27.2793H12.95209ZM25.67188,84.57806a37.73671,37.73671,0,0,1-12.71979-27.9707V27.98828H25.67188Zm0-57.29876H23.37646V16.66888h2.29542ZM32.60107,89.541a38.57786,38.57786,0,0,1-6.25439-4.375h.03424V68.25879h6.22015Zm14.54779,4.5625c-.707-.06634-1.41009-.14935-2.10687-.25579V69.81836a1.05344,1.05344,0,1,1,2.10687,0Zm2.24036.13672q-.76914-.0249-1.53131-.081V69.81836a1.76245,1.76245,0,1,0-3.5249,0V93.72461c-.51325-.08984-1.02442-.18555-1.53119-.29694V69.81836a3.2937,3.2937,0,0,1,6.5874,0Zm8.368-.71771c-.69476.14551-1.39837.26361-2.10687.36713V69.81836a1.05344,1.05344,0,1,1,2.10687,0Zm2.24073-.54889c-.5058.14069-1.017.26764-1.53168.38581v-23.541a1.76245,1.76245,0,1,0-3.5249,0v24.165q-.761.09522-1.53119.15716V69.81836a3.29389,3.29389,0,0,1,6.58777,0Zm8.36773-3.53021c-.68994.40131-1.39013.78509-2.10693,1.14062V69.81836a1.05347,1.05347,0,1,1,2.10693,0Zm2.24066-1.41016q-.75284.51417-1.53167.98926V69.81836a1.76246,1.76246,0,1,0-3.52491,0V90.915q-.75659.35459-1.53118.67389V69.81836a3.29388,3.29388,0,0,1,6.58776,0Zm6.9068-6.09674a37.19868,37.19868,0,0,1-6.19781,5.5987V69.81836a4.0029,4.0029,0,0,0-8.0058,0V91.877c-.8526.33-1.72168.624-2.6026.88855V69.81836a4.0029,4.0029,0,0,0-8.0058,0V94.19629c-.72369.04388-1.45117.07318-2.18561.07318-.13958,0-.27777-.0097-.41748-.01068V69.81836a4.00266,4.00266,0,0,0-8.00531,0V93.25879a36.82462,36.82462,0,0,1-6.22845-2.0918h.0307V61.84277L56.7251,57.3291l20.78808,4.58008Zm2.5849-3.29388q-.88907,1.26708-1.87591,2.45209V61.33887l-21.4209-4.71979-.07617-.0166L35.186,61.26947v29.584q-.95122-.44082-1.87585-.93054V59.832l23.415-5.15131,23.373,5.15131Zm.709-1.03131V68.25879h4.4234A38.04634,38.04634,0,0,1,80.80707,77.61127Zm0-10.06147V59.26166l-24.0058-5.29-.07617-.01758-24.124,5.30756V67.5498H26.38092V51.05957h7.40076a2.65039,2.65039,0,1,0-.59711-5.2334,3.43329,3.43329,0,0,0-6.23248.52051,2.33619,2.33619,0,0,0-.57117-.0498V28.124a37.32655,37.32655,0,0,1,23.60925-8.55365,36.7822,36.7822,0,0,1,21.25354,6.711,6.83371,6.83371,0,0,0-.14361.96765,4.73385,4.73385,0,0,0-3.998,3.255,3.20757,3.20757,0,0,0-.84094-.11133,3.26517,3.26517,0,0,0,0,6.53033H76.79352a3.63528,3.63528,0,0,0,3.227-1.98742,36.71647,36.71647,0,0,1,7.00677,21.67187,38.62473,38.62473,0,0,1-1.5766,10.94244Z"/></svg>