<?xml version="1.0" ?><svg viewBox="0 0 100 100" xmlns="http://www.w3.org/2000/svg"><path d="M91.09668,60.27637a3.259,3.259,0,0,0-.80371.09961,4.25074,4.25074,0,0,0-2.33905-1.99091c.00739-.2204.01678-.44025.01678-.66241a37.81843,37.81843,0,0,0-9.67847-25.29687h.03491v-.709h-.35449a3.92863,3.92863,0,0,0-1.54883.31683V30.17078a3.16694,3.16694,0,0,1,1.54883-.39929h.35449v-.709h-.35449a3.92863,3.92863,0,0,0-1.54883.31683V27.517a3.16694,3.16694,0,0,1,1.54883-.39929h.35449v-.709h-.35449a3.92863,3.92863,0,0,0-1.54883.31683V24.86267a3.16686,3.16686,0,0,1,1.54883-.3988h.35449v-.709h-.35449a3.92728,3.92728,0,0,0-1.54883.31665V22.20886a3.16694,3.16694,0,0,1,1.54883-.39929h.35449v-.709h-.35449a3.92863,3.92863,0,0,0-1.54883.31683V19.55505a3.16694,3.16694,0,0,1,1.54883-.39929h.35449v-.709h-.35449a3.92863,3.92863,0,0,0-1.54883.31683V16.90076a3.16686,3.16686,0,0,1,1.54883-.3988h.35449v-.709h-.35449A3.8806,3.8806,0,0,0,76.084,16.27a4.05482,4.05482,0,0,0-3.44824-.15509V14.31006H74.6875v-.709H67.71777V8.31787H62.71387V4.5835h-.709V8.31787H60.56348v5.2832H55.29v.709h1.90527V16.064a4.06814,4.06814,0,0,0-3.33789.20605,3.88913,3.88913,0,0,0-1.8916-.47705h-.35449v.709h.35449a3.16787,3.16787,0,0,1,1.58887.41876v1.86041a3.92812,3.92812,0,0,0-1.58887-.33435h-.35449v.709h.35449a3.16787,3.16787,0,0,1,1.58887.41876v.39673a38.72358,38.72358,0,0,0-6.96387-.0144v-.40173a3.16654,3.16654,0,0,1,1.5498-.39935h.35449v-.709h-.35449a3.92654,3.92654,0,0,0-1.5498.31708V16.90118a3.16328,3.16328,0,0,1,1.5498-.39923h.35449v-.709h-.35449a3.8801,3.8801,0,0,0-1.88867.47656,4.06065,4.06065,0,0,0-3.44824-.15472V14.31006h2.05176v-.709H37.88574V8.31787H32.88086V4.5835h-.709V8.31787H30.73047v5.2832H25.458v.709h1.90527V16.064a4.07014,4.07014,0,0,0-3.33887.20557,3.88762,3.88762,0,0,0-1.89062-.47656H21.7793v.709h.35449a3.163,3.163,0,0,1,1.58789.4187v1.86a3.92772,3.92772,0,0,0-1.58789-.33386H21.7793v.709h.35449a3.163,3.163,0,0,1,1.58789.4187v1.86029a3.9253,3.9253,0,0,0-1.58789-.33417H21.7793v.709h.35449a3.16675,3.16675,0,0,1,1.58789.41876v1.86041a3.92772,3.92772,0,0,0-1.58789-.33386H21.7793v.709h.35449a3.163,3.163,0,0,1,1.58789.4187v1.86a3.92772,3.92772,0,0,0-1.58789-.33386H21.7793v.709h.35449a3.163,3.163,0,0,1,1.58789.4187v1.86029a3.9253,3.9253,0,0,0-1.58789-.33417H21.7793v.709h.35449a3.16675,3.16675,0,0,1,1.58789.41876v1.86041a3.92772,3.92772,0,0,0-1.58789-.33386H21.7793v.709h.0296a37.87608,37.87608,0,0,0-5.73419,8.47455,2.535,2.535,0,0,0-4.10693.34088,1.94833,1.94833,0,0,0-.37012-.03516,1.981,1.981,0,1,0,0,3.96191h2.67462A37.879,37.879,0,0,0,36.375,93.08557v.07654h.19379a37.88956,37.88956,0,0,0,50.28845-26.3667h4.23944a3.25952,3.25952,0,0,0,0-6.519ZM11.59766,44.459a1.272,1.272,0,1,1,.43164-2.46777l.31055.11328.13477-.30225a1.82743,1.82743,0,0,1,3.44824.31934l.09375.39893.38184-.15088a1.10362,1.10362,0,0,1,1.48828,1.00586,1.08507,1.08507,0,0,1-1.085,1.0835Zm12.124-9.75452a3.92772,3.92772,0,0,0-1.58789-.33386H21.7793v.709h.35449a3.163,3.163,0,0,1,1.58789.4187v1.86029a3.9253,3.9253,0,0,0-1.58789-.33417H21.7793v.709h.35449a3.16675,3.16675,0,0,1,1.58789.41876v1.86041a3.92772,3.92772,0,0,0-1.58789-.33386H21.7793v.709h.35449a3.163,3.163,0,0,1,1.58789.4187v1.86a3.92772,3.92772,0,0,0-1.58789-.33386H21.7793v.709h.35449a3.163,3.163,0,0,1,1.58789.4187V45.3205a3.9253,3.9253,0,0,0-1.58789-.33417H21.7793v.709h.35449a3.16675,3.16675,0,0,1,1.58789.41876v1.86041a3.92772,3.92772,0,0,0-1.58789-.33386H21.7793v.709h.35449a3.163,3.163,0,0,1,1.58789.4187v1.86a3.92772,3.92772,0,0,0-1.58789-.33386H21.7793v.709h.35449a3.163,3.163,0,0,1,1.58789.4187v1.86029a3.9253,3.9253,0,0,0-1.58789-.33417H21.7793v.709h.35449a3.16675,3.16675,0,0,1,1.58789.41876V55.9364a3.92772,3.92772,0,0,0-1.58789-.33386H21.7793v.709h.35449a3.163,3.163,0,0,1,1.58789.4187v1.86a3.92772,3.92772,0,0,0-1.58789-.33386H21.7793v.709h.35449a3.163,3.163,0,0,1,1.58789.4187v1.86029a3.9253,3.9253,0,0,0-1.58789-.33417H21.7793v.709h.35449a3.16675,3.16675,0,0,1,1.58789.41876v1.86041a3.92772,3.92772,0,0,0-1.58789-.33386H21.7793v.709h.35449a3.163,3.163,0,0,1,1.58789.4187v1.86a3.92772,3.92772,0,0,0-1.58789-.33386H21.7793v.709h.35449a3.163,3.163,0,0,1,1.58789.4187v1.86047a3.92848,3.92848,0,0,0-1.58789-.33435H21.7793v.709h.35449a3.16423,3.16423,0,0,1,1.58789.41919v1.86a3.92772,3.92772,0,0,0-1.58789-.33386H21.7793v.709h.35449a3.163,3.163,0,0,1,1.58789.4187v1.86a3.92772,3.92772,0,0,0-1.58789-.33386H21.7793v.709h.35449a3.163,3.163,0,0,1,1.58789.4187v1.86047a3.92848,3.92848,0,0,0-1.58789-.33435H21.7793v.709h.35449a3.16423,3.16423,0,0,1,1.58789.41919v1.86a3.92772,3.92772,0,0,0-1.58789-.33386H21.7793v.709h.35449a3.163,3.163,0,0,1,1.58789.4187v3.38416A37.12835,37.12835,0,0,1,15.02356,45.168h1.7782a1.79157,1.79157,0,1,0-.27667-3.56128,37.15065,37.15065,0,0,1,5.94855-8.87006l.22321-.235a3.06494,3.06494,0,0,1,1.02484.34283Zm3.6416,52.087h-.51215q-1.2562-1.00443-2.42047-2.1131V82.686h2.93262Zm0-4.81445H24.43066V80.562a3.34452,3.34452,0,0,1,2.93262-.0199Zm0-2.21777a4.11932,4.11932,0,0,0-2.93262.01642V77.9079a3.33582,3.33582,0,0,1,2.93262-.01947Zm0-2.65405a4.11742,4.11742,0,0,0-2.93262.01666v-1.868a3.34069,3.34069,0,0,1,2.93262-.01929Zm0-2.65387a4.11344,4.11344,0,0,0-2.93262.016V72.6001a3.34452,3.34452,0,0,1,2.93262-.0199Zm0-2.654a4.11932,4.11932,0,0,0-2.93262.01642V69.946a3.33582,3.33582,0,0,1,2.93262-.01947Zm0-2.65405a4.11742,4.11742,0,0,0-2.93262.01666V67.292a3.34069,3.34069,0,0,1,2.93262-.01929Zm0-2.65387a4.11344,4.11344,0,0,0-2.93262.016V64.63824a3.34358,3.34358,0,0,1,2.93262-.01978Zm0-2.654a4.11638,4.11638,0,0,0-2.93262.01617V61.98413a3.33283,3.33283,0,0,1,2.93262-.01959Zm0-2.65411a4.11416,4.11416,0,0,0-2.93262.01648V59.33008a3.34069,3.34069,0,0,1,2.93262-.01929Zm0-2.65381a4.11344,4.11344,0,0,0-2.93262.016V56.67633a3.34358,3.34358,0,0,1,2.93262-.01978Zm0-2.65411a4.11638,4.11638,0,0,0-2.93262.01636V54.02222a3.33283,3.33283,0,0,1,2.93262-.01959Zm0-2.654a4.11416,4.11416,0,0,0-2.93262.01648V51.36816a3.33928,3.33928,0,0,1,2.93262-.01935Zm0-2.65381a4.11344,4.11344,0,0,0-2.93262.016V48.71442a3.34358,3.34358,0,0,1,2.93262-.01978Zm0-2.654a4.11638,4.11638,0,0,0-2.93262.01617V46.0603a3.33283,3.33283,0,0,1,2.93262-.01959Zm0-2.65411a4.11416,4.11416,0,0,0-2.93262.01648V43.40625a3.34069,3.34069,0,0,1,2.93262-.01929Zm0-2.65381a4.11344,4.11344,0,0,0-2.93262.016V40.7525a3.34358,3.34358,0,0,1,2.93262-.01978Zm0-2.654a4.11638,4.11638,0,0,0-2.93262.01617V38.09839a3.33283,3.33283,0,0,1,2.93262-.01959Zm0-2.65411a4.11416,4.11416,0,0,0-2.93262.01648V35.44434a3.34452,3.34452,0,0,1,2.93262-.0199Zm0-2.654a4.11932,4.11932,0,0,0-2.93262.01642V32.79059a3.34358,3.34358,0,0,1,2.93262-.01978Zm0-2.65381a4.11638,4.11638,0,0,0-2.93262.01617V30.13647a3.33283,3.33283,0,0,1,2.93262-.01959Zm0-2.65411a4.11416,4.11416,0,0,0-2.93262.01648V27.48242a3.34452,3.34452,0,0,1,2.93262-.0199Zm0-2.654a4.11932,4.11932,0,0,0-2.93262.01642V24.82867a3.34358,3.34358,0,0,1,2.93262-.01978Zm0-2.65381a4.11638,4.11638,0,0,0-2.93262.01617V22.17462a3.334,3.334,0,0,1,2.93262-.01965Zm0-2.65411a4.11416,4.11416,0,0,0-2.93262.01648V19.52051a3.34452,3.34452,0,0,1,2.93262-.0199Zm0-2.654a4.11932,4.11932,0,0,0-2.93262.01642V16.86676a3.34358,3.34358,0,0,1,2.93262-.01978Zm4.07617-9.69092h5.7373v4.57422h-5.7373Zm.73633,81.3269-.03864-.02222h.03864Zm0-.7312H30.90564q-1.46255-.88092-2.83337-1.89154v-.23053h4.10352Zm0-2.83105H28.07227V82.686h4.10352Zm0-4.81445H28.07227V80.63763a5.21537,5.21537,0,0,1,4.10352-.02844Zm0-2.13458a6.01964,6.01964,0,0,0-4.10352.0257V77.98383a5.219,5.219,0,0,1,4.10352-.02838Zm0-2.65387a6.01629,6.01629,0,0,0-4.10352.02557V75.33008a5.22351,5.22351,0,0,1,4.10352-.029Zm0-2.65393a6.01169,6.01169,0,0,0-4.10352.02563V72.67572a5.21537,5.21537,0,0,1,4.10352-.02844Zm0-2.65424a6.01965,6.01965,0,0,0-4.10352.02588v-1.8844a5.219,5.219,0,0,1,4.10352-.02838Zm0-2.65375a6.01629,6.01629,0,0,0-4.10352.02557V67.368a5.212,5.212,0,0,1,4.10352-.029Zm0-2.65417a6.00679,6.00679,0,0,0-4.10352.02594V64.71381a5.2159,5.2159,0,0,1,4.10352-.0285Zm0-2.654a6.01965,6.01965,0,0,0-4.10352.02588V62.06a5.219,5.219,0,0,1,4.10352-.02838Zm0-2.65375a6.01629,6.01629,0,0,0-4.10352.02557V59.40613a5.21173,5.21173,0,0,1,4.10352-.02893Zm0-2.65424a6.01462,6.01462,0,0,0-4.10352.026V56.75189a5.21537,5.21537,0,0,1,4.10352-.02844Zm0-2.65381a6.01964,6.01964,0,0,0-4.10352.0257V54.09808a5.219,5.219,0,0,1,4.10352-.02838Zm0-2.65387a6.01629,6.01629,0,0,0-4.10352.02557V51.44421a5.21173,5.21173,0,0,1,4.10352-.02893Zm0-2.65424a6.01462,6.01462,0,0,0-4.10352.026V48.79a5.21537,5.21537,0,0,1,4.10352-.02844Zm0-2.65381a6.01964,6.01964,0,0,0-4.10352.0257V46.13617a5.219,5.219,0,0,1,4.10352-.02838Zm0-2.65381a6.01845,6.01845,0,0,0-4.10352.02551V43.4823a5.21173,5.21173,0,0,1,4.10352-.02893Zm0-2.6543a6.01462,6.01462,0,0,0-4.10352.026V40.82806a5.21537,5.21537,0,0,1,4.10352-.02844Zm0-2.65381a6.01964,6.01964,0,0,0-4.10352.0257V38.17432a5.21973,5.21973,0,0,1,4.10352-.0285Zm0-2.65387a6.01629,6.01629,0,0,0-4.10352.02557V35.52a5.21537,5.21537,0,0,1,4.10352-.02844Zm0-2.65424a6.01964,6.01964,0,0,0-4.10352.0257V32.86615a5.21355,5.21355,0,0,1,4.10352-.0285Zm0-2.65381a6.01964,6.01964,0,0,0-4.10352.0257V30.21234a5.219,5.219,0,0,1,4.10352-.02838Zm0-2.65387a6.01629,6.01629,0,0,0-4.10352.02557V27.558a5.21537,5.21537,0,0,1,4.10352-.02844Zm0-2.65424a6.01964,6.01964,0,0,0-4.10352.0257V24.90424a5.21537,5.21537,0,0,1,4.10352-.02844Zm0-2.65381a6.01964,6.01964,0,0,0-4.10352.0257V22.25043a5.219,5.219,0,0,1,4.10352-.02838Zm0-2.65381a6.01593,6.01593,0,0,0-4.10352.02545V19.59613a5.2159,5.2159,0,0,1,4.10352-.0285Zm0-2.65442a6.01965,6.01965,0,0,0-4.10352.02588v-1.8844a5.21537,5.21537,0,0,1,4.10352-.02844Zm5.23145,73.65228h-.7041a37.02563,37.02563,0,0,1-3.81836-1.72644v-.39514h4.52246Zm0-2.83057H32.88477V87.50049h4.52246Zm0-2.83105H32.88477V82.686h4.52246Zm0-4.81445H32.88477V80.601a6.55965,6.55965,0,0,1,4.52246.01019Zm0-2.12231a7.36853,7.36853,0,0,0-4.52246-.00952V77.94714a6.55932,6.55932,0,0,1,4.52246.01031Zm0-2.65375a7.36451,7.36451,0,0,0-4.52246-.00989V75.2934a6.56525,6.56525,0,0,1,4.52246.01019Zm0-2.65393a7.36449,7.36449,0,0,0-4.52246-.0097V72.6391a6.55965,6.55965,0,0,1,4.52246.01019Zm0-2.65424a7.36853,7.36853,0,0,0-4.52246-.00952V69.98523a6.55932,6.55932,0,0,1,4.52246.01031Zm0-2.65381a7.36406,7.36406,0,0,0-4.52246-.00977V67.33142a6.55439,6.55439,0,0,1,4.52246.01019Zm0-2.65387a7.35954,7.35954,0,0,0-4.52246-.00989V64.67719a6.55965,6.55965,0,0,1,4.52246.01019Zm0-2.65424a7.36853,7.36853,0,0,0-4.52246-.00952V62.02332a6.55932,6.55932,0,0,1,4.52246.01031Zm0-2.65375a7.36451,7.36451,0,0,0-4.52246-.00989V59.36908a6.55965,6.55965,0,0,1,4.52246.01019Zm0-2.6543a7.36853,7.36853,0,0,0-4.52246-.00964V56.71527a6.55965,6.55965,0,0,1,4.52246.01019Zm0-2.65387a7.36853,7.36853,0,0,0-4.52246-.00952V54.0614a6.55932,6.55932,0,0,1,4.52246.01031Zm0-2.65381a7.36406,7.36406,0,0,0-4.52246-.00977V51.4071a6.55965,6.55965,0,0,1,4.52246.01031Zm0-2.65424a7.36853,7.36853,0,0,0-4.52246-.00964V48.75336a6.55965,6.55965,0,0,1,4.52246.01019Zm0-2.65387a7.36853,7.36853,0,0,0-4.52246-.00952V46.09949a6.55932,6.55932,0,0,1,4.52246.01031Zm0-2.65375a7.36451,7.36451,0,0,0-4.52246-.00989V43.44525a6.55965,6.55965,0,0,1,4.52246.01019Zm0-2.6543a7.36853,7.36853,0,0,0-4.52246-.00964V40.79144a6.55965,6.55965,0,0,1,4.52246.01019Zm0-2.65387a7.36853,7.36853,0,0,0-4.52246-.00952V38.13757a6.55932,6.55932,0,0,1,4.52246.01031Zm0-2.65381a7.36406,7.36406,0,0,0-4.52246-.00977V35.48334a6.55965,6.55965,0,0,1,4.52246.01019Zm0-2.6543a7.36853,7.36853,0,0,0-4.52246-.00952V32.82947a6.55965,6.55965,0,0,1,4.52246.01031Zm0-2.65381a7.36853,7.36853,0,0,0-4.52246-.00952V30.17566a6.55932,6.55932,0,0,1,4.52246.01031Zm0-2.65375a7.36451,7.36451,0,0,0-4.52246-.00989V27.52142a6.55965,6.55965,0,0,1,4.52246.01019Zm0-2.65436a7.36853,7.36853,0,0,0-4.52246-.00952V24.86755a6.55932,6.55932,0,0,1,4.52246.01031Zm0-2.65375a7.36451,7.36451,0,0,0-4.52246-.00989V22.21375a6.55932,6.55932,0,0,1,4.52246.01031Zm0-2.65387a7.36406,7.36406,0,0,0-4.52246-.00977V19.55951a6.55965,6.55965,0,0,1,4.52246.01019Zm0-2.6543a7.36853,7.36853,0,0,0-4.52246-.00952V16.90564a6.55932,6.55932,0,0,1,4.52246.01031Zm4.6875,75.2594q-1.72742-.37766-3.39331-.91052h3.39331Zm0-1.61951H38.11621V90.33154h3.97852Zm0-2.83057H38.11621V87.50049h3.97852Zm0-2.83105H38.11621V82.686h3.97852Zm0-4.81445H38.11621V80.59869a5.33188,5.33188,0,0,1,3.97852-.01178Zm0-2.15405a6.13676,6.13676,0,0,0-3.97852.01056V77.94489a5.33155,5.33155,0,0,1,3.97852-.01221Zm0-2.65424a6.13554,6.13554,0,0,0-3.97852.011v-1.889a5.33509,5.33509,0,0,1,3.97852-.01184Zm0-2.654a6.13876,6.13876,0,0,0-3.97852.011v-1.889a5.33188,5.33188,0,0,1,3.97852-.01178Zm0-2.65369a6.13676,6.13676,0,0,0-3.97852.01056V69.983a5.33155,5.33155,0,0,1,3.97852-.01221Zm0-2.65424a6.13554,6.13554,0,0,0-3.97852.011V67.32867a5.33159,5.33159,0,0,1,3.97852-.01172Zm0-2.65405a6.13318,6.13318,0,0,0-3.97852.011v-1.889a5.33159,5.33159,0,0,1,3.97852-.01172Zm0-2.65363a6.13676,6.13676,0,0,0-3.97852.01056V62.02106a5.33155,5.33155,0,0,1,3.97852-.01221Zm0-2.65424a6.13554,6.13554,0,0,0-3.97852.011V59.36676a5.33159,5.33159,0,0,1,3.97852-.01172Zm0-2.65405a6.13758,6.13758,0,0,0-3.97852.0108V56.713a5.33155,5.33155,0,0,1,3.97852-.01221Zm0-2.65417a6.13393,6.13393,0,0,0-3.97852.011V54.05914a5.33155,5.33155,0,0,1,3.97852-.01221Zm0-2.65369a6.13554,6.13554,0,0,0-3.97852.011V51.40485a5.33159,5.33159,0,0,1,3.97852-.01172Zm0-2.65405a6.13758,6.13758,0,0,0-3.97852.0108V48.751a5.33155,5.33155,0,0,1,3.97852-.01221Zm0-2.65405a6.13554,6.13554,0,0,0-3.97852.011V46.09723a5.33155,5.33155,0,0,1,3.97852-.01221Zm0-2.65381a6.13554,6.13554,0,0,0-3.97852.011V43.44293a5.33159,5.33159,0,0,1,3.97852-.01172Zm0-2.65405a6.13758,6.13758,0,0,0-3.97852.0108V40.78912a5.33155,5.33155,0,0,1,3.97852-.01221Zm0-2.65417a6.13393,6.13393,0,0,0-3.97852.011V38.13531a5.33188,5.33188,0,0,1,3.97852-.01227Zm0-2.65393a6.13758,6.13758,0,0,0-3.97852.01129V35.481a5.33159,5.33159,0,0,1,3.97852-.01172Zm0-2.65381a6.13758,6.13758,0,0,0-3.97852.0108V32.82721a5.33155,5.33155,0,0,1,3.97852-.01221Zm0-2.65405a6.13554,6.13554,0,0,0-3.97852.011V30.1734a5.33188,5.33188,0,0,1,3.97852-.01227Zm0-2.65405a6.13758,6.13758,0,0,0-3.97852.01129V27.5191a5.33159,5.33159,0,0,1,3.97852-.01172Zm0-2.65381a6.13758,6.13758,0,0,0-3.97852.0108V24.8653a5.33155,5.33155,0,0,1,3.97852-.01221Zm0-2.65417a6.13393,6.13393,0,0,0-3.97852.011V22.21149a5.33188,5.33188,0,0,1,3.97852-.01221Zm0-2.65393a6.13758,6.13758,0,0,0-3.97852.01129V19.55719a5.33159,5.33159,0,0,1,3.97852-.01172Zm0-2.65381a6.13758,6.13758,0,0,0-3.97852.0108V16.90338a5.33155,5.33155,0,0,1,3.97852-.01221Zm0-2.65405a6.07138,6.07138,0,0,0-4.34473.153,7.24706,7.24706,0,0,0-5.2334,0,5.97131,5.97131,0,0,0-4.44434-.10742V14.31006H42.09473Zm3.78711,78.57056q-1.559-.1745-3.07812-.47406V93.16211h3.07813Zm0-2.24469H42.80371V90.33154h3.07813Zm0-2.83057H42.80371V87.50049h3.07813Zm0-2.83105H42.80371V82.686h3.07813Zm0-4.81445H42.80371V80.601a3.32205,3.32205,0,0,1,3.07813-.01941Zm0-2.18445a4.089,4.089,0,0,0-3.07812.018V77.94672a3.32476,3.32476,0,0,1,3.07813-.01947Zm0-2.65405a4.09251,4.09251,0,0,0-3.07812.01776V75.29285a3.32205,3.32205,0,0,1,3.07813-.01941Zm0-2.65405a4.089,4.089,0,0,0-3.07812.018V72.639a3.32205,3.32205,0,0,1,3.07813-.01941Zm0-2.65381a4.089,4.089,0,0,0-3.07812.018V69.9848a3.32476,3.32476,0,0,1,3.07813-.01947Zm0-2.65405a4.09251,4.09251,0,0,0-3.07812.01776V67.33093a3.32205,3.32205,0,0,1,3.07813-.01941Zm0-2.65405a4.089,4.089,0,0,0-3.07812.018V64.67712a3.32205,3.32205,0,0,1,3.07813-.01941Zm0-2.65375a4.08933,4.08933,0,0,0-3.07812.01782V62.02277a3.321,3.321,0,0,1,3.07813-.01935Zm0-2.65436a4.089,4.089,0,0,0-3.07812.018V59.369a3.32205,3.32205,0,0,1,3.07813-.01941Zm0-2.65381a4.089,4.089,0,0,0-3.07812.018V56.7149a3.323,3.323,0,0,1,3.07813-.0191Zm0-2.65381a4.08962,4.08962,0,0,0-3.07812.01752V54.06091a3.32205,3.32205,0,0,1,3.07813-.01941Zm0-2.6543a4.089,4.089,0,0,0-3.07812.018V51.4071a3.32348,3.32348,0,0,1,3.07813-.01935Zm0-2.65381a4.089,4.089,0,0,0-3.07812.018V48.753a3.32422,3.32422,0,0,1,3.07813-.0191Zm0-2.65381a4.08962,4.08962,0,0,0-3.07812.01752V46.099a3.32205,3.32205,0,0,1,3.07813-.01941Zm0-2.6543a4.089,4.089,0,0,0-3.07812.018V43.44519a3.32205,3.32205,0,0,1,3.07813-.01941Zm0-2.65381a4.089,4.089,0,0,0-3.07812.018V40.791a3.32455,3.32455,0,0,1,3.07813-.019Zm0-2.65356a4.09159,4.09159,0,0,0-3.07812.01733V38.13708a3.32205,3.32205,0,0,1,3.07813-.01941Zm0-2.65454a4.089,4.089,0,0,0-3.07812.018V35.48328a3.32205,3.32205,0,0,1,3.07813-.01941Zm0-2.65381a4.089,4.089,0,0,0-3.07812.018V32.8291a3.32455,3.32455,0,0,1,3.07813-.019Zm0-2.65356a4.09159,4.09159,0,0,0-3.07812.01733V30.17517a3.32205,3.32205,0,0,1,3.07813-.01941Zm0-2.65454a4.089,4.089,0,0,0-3.07812.018V27.52136a3.32205,3.32205,0,0,1,3.07813-.01941Zm0-2.65381a4.089,4.089,0,0,0-3.07812.018V24.86719a3.3269,3.3269,0,0,1,3.07813-.01947Zm0-2.65381a4.09448,4.09448,0,0,0-3.07812.01758V22.21326a3.32205,3.32205,0,0,1,3.07813-.01941Zm0-2.6543a4.089,4.089,0,0,0-3.07812.018V19.55945A3.32205,3.32205,0,0,1,45.88184,19.54Zm0-2.65381a4.089,4.089,0,0,0-3.07812.018V16.90527a3.3269,3.3269,0,0,1,3.07813-.01947Zm7.67285,76.01727c-1.155.10852-2.32385.16864-3.50684.16864-1.16614,0-2.318-.06091-3.457-.16638V93.16211h6.96387Zm0-73.33325a3.934,3.934,0,0,0-1.58887-.33453h-.35449v.709h.35449a3.16839,3.16839,0,0,1,1.58887.41925v1.86041a3.92812,3.92812,0,0,0-1.58887-.33435h-.35449v.709h.35449a3.16787,3.16787,0,0,1,1.58887.41876V26.743a3.92812,3.92812,0,0,0-1.58887-.33435h-.35449v.709h.35449a3.16787,3.16787,0,0,1,1.58887.41876V29.397a3.934,3.934,0,0,0-1.58887-.33453h-.35449v.709h.35449a3.16839,3.16839,0,0,1,1.58887.41925v1.86041a3.92812,3.92812,0,0,0-1.58887-.33435h-.35449v.709h.35449a3.16787,3.16787,0,0,1,1.58887.41876V34.705a3.92812,3.92812,0,0,0-1.58887-.33435h-.35449v.709h.35449a3.16787,3.16787,0,0,1,1.58887.41876v1.8606a3.934,3.934,0,0,0-1.58887-.33453h-.35449v.709h.35449a3.16839,3.16839,0,0,1,1.58887.41925v1.86041a3.92812,3.92812,0,0,0-1.58887-.33435h-.35449v.709h.35449a3.16787,3.16787,0,0,1,1.58887.41876v1.86041a3.92812,3.92812,0,0,0-1.58887-.33435h-.35449v.709h.35449a3.16787,3.16787,0,0,1,1.58887.41876v1.8606a3.934,3.934,0,0,0-1.58887-.33453h-.35449v.709h.35449a3.16839,3.16839,0,0,1,1.58887.41925V47.975a3.92812,3.92812,0,0,0-1.58887-.33435h-.35449v.709h.35449a3.16787,3.16787,0,0,1,1.58887.41876v1.86041a3.92812,3.92812,0,0,0-1.58887-.33435h-.35449v.709h.35449a3.16787,3.16787,0,0,1,1.58887.41876v1.8606a3.934,3.934,0,0,0-1.58887-.33453h-.35449v.709h.35449a3.16839,3.16839,0,0,1,1.58887.41925v1.86041a3.92812,3.92812,0,0,0-1.58887-.33435h-.35449v.709h.35449a3.16787,3.16787,0,0,1,1.58887.41876V58.5907a3.92812,3.92812,0,0,0-1.58887-.33435h-.35449v.709h.35449a3.16787,3.16787,0,0,1,1.58887.41876v1.8606a3.934,3.934,0,0,0-1.58887-.33453h-.35449v.709h.35449a3.16839,3.16839,0,0,1,1.58887.41925V63.8988a3.92812,3.92812,0,0,0-1.58887-.33435h-.35449v.709h.35449a3.16787,3.16787,0,0,1,1.58887.41876v1.86041a3.92812,3.92812,0,0,0-1.58887-.33435h-.35449v.709h.35449a3.16787,3.16787,0,0,1,1.58887.41876v1.8609a3.92911,3.92911,0,0,0-1.58887-.33484h-.35449v.709h.35449a3.17064,3.17064,0,0,1,1.58887.41925v1.86041a3.92812,3.92812,0,0,0-1.58887-.33435h-.35449v.709h.35449a3.16787,3.16787,0,0,1,1.58887.41876v1.86041a3.92812,3.92812,0,0,0-1.58887-.33435h-.35449v.709h.35449a3.16787,3.16787,0,0,1,1.58887.41876v1.8609a3.92911,3.92911,0,0,0-1.58887-.33484h-.35449v.709h.35449a3.17064,3.17064,0,0,1,1.58887.41925v1.86041a3.92812,3.92812,0,0,0-1.58887-.33435h-.35449v.709h.35449a3.16787,3.16787,0,0,1,1.58887.41876V86.7915H51.89355v.709h1.66113v2.12207H51.89355v.709h1.66113v2.12158H46.59082V90.33154h1.5498v-.709h-1.5498V87.50049h1.5498v-.709h-1.5498V80.59662a3.16654,3.16654,0,0,1,1.5498-.39935h.35449v-.709h-.35449a3.92654,3.92654,0,0,0-1.5498.31708V77.94281a3.16691,3.16691,0,0,1,1.5498-.39984h.35449v-.709h-.35449a3.92881,3.92881,0,0,0-1.5498.31726V75.28851a3.16654,3.16654,0,0,1,1.5498-.39935h.35449v-.709h-.35449a3.92654,3.92654,0,0,0-1.5498.31708V72.6347a3.16654,3.16654,0,0,1,1.5498-.39935h.35449v-.709h-.35449a3.92654,3.92654,0,0,0-1.5498.31708V69.9809a3.16691,3.16691,0,0,1,1.5498-.39984h.35449v-.709h-.35449a3.92881,3.92881,0,0,0-1.5498.31726V67.3266a3.16654,3.16654,0,0,1,1.5498-.39935h.35449v-.709h-.35449a3.92654,3.92654,0,0,0-1.5498.31708V64.67279a3.16654,3.16654,0,0,1,1.5498-.39935h.35449v-.709h-.35449a3.92654,3.92654,0,0,0-1.5498.31708v-1.863a3.16654,3.16654,0,0,1,1.5498-.39935h.35449v-.709h-.35449a3.92654,3.92654,0,0,0-1.5498.31708V59.36469a3.16654,3.16654,0,0,1,1.5498-.39935h.35449v-.709h-.35449a3.92654,3.92654,0,0,0-1.5498.31708V56.71088a3.16654,3.16654,0,0,1,1.5498-.39935h.35449v-.709h-.35449a3.92654,3.92654,0,0,0-1.5498.31708v-1.863a3.16654,3.16654,0,0,1,1.5498-.39935h.35449v-.709h-.35449a3.92654,3.92654,0,0,0-1.5498.31708V51.40277a3.16654,3.16654,0,0,1,1.5498-.39935h.35449v-.709h-.35449a3.92654,3.92654,0,0,0-1.5498.31708V48.749a3.16654,3.16654,0,0,1,1.5498-.39935h.35449v-.709h-.35449a3.92654,3.92654,0,0,0-1.5498.31708v-1.863a3.16654,3.16654,0,0,1,1.5498-.39935h.35449v-.709h-.35449a3.92654,3.92654,0,0,0-1.5498.31708V43.44086a3.16654,3.16654,0,0,1,1.5498-.39935h.35449v-.709h-.35449a3.92654,3.92654,0,0,0-1.5498.31708V40.787a3.16654,3.16654,0,0,1,1.5498-.39935h.35449v-.709h-.35449a3.92654,3.92654,0,0,0-1.5498.31708v-1.863a3.16654,3.16654,0,0,1,1.5498-.39935h.35449v-.709h-.35449a3.92654,3.92654,0,0,0-1.5498.31708V35.47894a3.16654,3.16654,0,0,1,1.5498-.39935h.35449v-.709h-.35449a3.92654,3.92654,0,0,0-1.5498.31708V32.82513a3.16654,3.16654,0,0,1,1.5498-.39935h.35449v-.709h-.35449a3.92654,3.92654,0,0,0-1.5498.31708v-1.863a3.16654,3.16654,0,0,1,1.5498-.39935h.35449v-.709h-.35449a3.92654,3.92654,0,0,0-1.5498.31708V27.517a3.16654,3.16654,0,0,1,1.5498-.39935h.35449v-.709h-.35449a3.92654,3.92654,0,0,0-1.5498.31708V24.8631a3.16328,3.16328,0,0,1,1.5498-.39923h.35449v-.709h-.35449a3.92823,3.92823,0,0,0-1.5498.31665V22.20892a3.16654,3.16654,0,0,1,1.5498-.39935h.35449v-.709h-.35449a3.92654,3.92654,0,0,0-1.5498.31708V20.668a38.05511,38.05511,0,0,1,6.96387.01373Zm3.64063,72.80426q-1.447.2829-2.93164.452V93.16211h2.93164Zm0-1.78625H54.26367V90.33154h2.93164Zm0-2.83057H54.26367V87.50049h2.93164Zm0-2.83105H54.26367V82.686h2.93164Zm0-4.81445H54.26367v-1.415a3.34172,3.34172,0,0,1,2.93164-.0199Zm0-2.2179a4.1164,4.1164,0,0,0-2.93164.0166V77.90826a3.33969,3.33969,0,0,1,2.93164-.02008Zm0-2.65405a4.11285,4.11285,0,0,0-2.93164.01691V75.254a3.33948,3.33948,0,0,1,2.93164-.01959Zm0-2.65387a4.11346,4.11346,0,0,0-2.93164.01642V72.60016a3.34172,3.34172,0,0,1,2.93164-.0199Zm0-2.65411a4.1164,4.1164,0,0,0-2.93164.01685V69.94635a3.33969,3.33969,0,0,1,2.93164-.02008Zm0-2.65393a4.11285,4.11285,0,0,0-2.93164.01691v-1.868a3.33948,3.33948,0,0,1,2.93164-.01959Zm0-2.65387a4.11216,4.11216,0,0,0-2.93164.01624V64.63794a3.33766,3.33766,0,0,1,2.93164-.01978Zm0-2.65387a4.11672,4.11672,0,0,0-2.93164.01636V61.98425a3.33384,3.33384,0,0,1,2.93164-.0199Zm0-2.65424a4.11549,4.11549,0,0,0-2.93164.01691v-1.868a3.33948,3.33948,0,0,1,2.93164-.01959Zm0-2.65369a4.11379,4.11379,0,0,0-2.93164.01617V56.676a3.33766,3.33766,0,0,1,2.93164-.01978Zm0-2.65411a4.1164,4.1164,0,0,0-2.93164.0166V54.02234a3.33384,3.33384,0,0,1,2.93164-.0199Zm0-2.65411a4.11549,4.11549,0,0,0-2.93164.01691v-1.868a3.33948,3.33948,0,0,1,2.93164-.01959Zm0-2.65369a4.11379,4.11379,0,0,0-2.93164.01617V48.71411a3.33766,3.33766,0,0,1,2.93164-.01978Zm0-2.654a4.11672,4.11672,0,0,0-2.93164.01636V46.06042a3.33384,3.33384,0,0,1,2.93164-.0199Zm0-2.65417a4.11549,4.11549,0,0,0-2.93164.01672V43.40631a3.33948,3.33948,0,0,1,2.93164-.01959Zm0-2.65375a4.11379,4.11379,0,0,0-2.93164.01617V40.7522a3.33766,3.33766,0,0,1,2.93164-.01978Zm0-2.654a4.11672,4.11672,0,0,0-2.93164.01636V38.09851a3.33384,3.33384,0,0,1,2.93164-.0199Zm0-2.65417a4.11549,4.11549,0,0,0-2.93164.01672V35.4444a3.34172,3.34172,0,0,1,2.93164-.0199Zm0-2.65405a4.1164,4.1164,0,0,0-2.93164.0166v-1.8678a3.33766,3.33766,0,0,1,2.93164-.01978Zm0-2.65369a4.11672,4.11672,0,0,0-2.93164.01636V30.1366a3.33384,3.33384,0,0,1,2.93164-.0199Zm0-2.65417a4.11549,4.11549,0,0,0-2.93164.01672V27.48248a3.34172,3.34172,0,0,1,2.93164-.0199Zm0-2.65405a4.1164,4.1164,0,0,0-2.93164.0166v-1.8678a3.33766,3.33766,0,0,1,2.93164-.01978Zm0-2.65369a4.11672,4.11672,0,0,0-2.93164.01636V22.17468a3.33384,3.33384,0,0,1,2.93164-.0199Zm0-2.65417a4.11549,4.11549,0,0,0-2.93164.01672V19.52057a3.34172,3.34172,0,0,1,2.93164-.0199Zm0-2.65405a4.1164,4.1164,0,0,0-2.93164.0166v-1.8678a3.33766,3.33766,0,0,1,2.93164-.01978Zm4.07715-9.6908h5.73633v4.57422H61.27246ZM57.9043,94.1v-.93787h3.48834C60.25214,93.52826,59.08948,93.84418,57.9043,94.1Zm4.10449-1.64685H57.9043V90.33154h4.10449Zm0-2.83057H57.9043V87.50049h4.10449Zm0-2.83105H57.9043V82.686h4.10449Zm0-4.81445H57.9043V80.6377a5.21787,5.21787,0,0,1,4.10449-.0285Zm0-2.13477a6.01718,6.01718,0,0,0-4.10449.02594v-1.8844a5.21776,5.21776,0,0,1,4.10449-.02844Zm0-2.65363a6.01668,6.01668,0,0,0-4.10449.02557V75.33a5.22176,5.22176,0,0,1,4.10449-.02893Zm0-2.65393a6.0135,6.0135,0,0,0-4.10449.02563V72.67578a5.21787,5.21787,0,0,1,4.10449-.0285Zm0-2.65436a6.01718,6.01718,0,0,0-4.10449.02594v-1.8844a5.21776,5.21776,0,0,1,4.10449-.02844Zm0-2.65369a6.0174,6.0174,0,0,0-4.10449.0257V67.36816a5.21821,5.21821,0,0,1,4.10449-.02911Zm0-2.65411a6.00894,6.00894,0,0,0-4.10449.026v-1.8847a5.21761,5.21761,0,0,1,4.10449-.02856Zm0-2.65411a6.01718,6.01718,0,0,0-4.10449.02594V62.06a5.21776,5.21776,0,0,1,4.10449-.02844Zm0-2.65363a6.01668,6.01668,0,0,0-4.10449.02557V59.40619a5.21422,5.21422,0,0,1,4.10449-.02905Zm0-2.65448a6.01252,6.01252,0,0,0-4.10449.02631V56.752a5.21761,5.21761,0,0,1,4.10449-.02856Zm0-2.65381a6.01718,6.01718,0,0,0-4.10449.02594V54.09814a5.21828,5.21828,0,0,1,4.10449-.02856Zm0-2.65369a6.0174,6.0174,0,0,0-4.10449.0257V51.44427a5.21422,5.21422,0,0,1,4.10449-.02905Zm0-2.65442a6.01252,6.01252,0,0,0-4.10449.02631V48.79a5.21787,5.21787,0,0,1,4.10449-.0285Zm0-2.65381a6.01718,6.01718,0,0,0-4.10449.02594v-1.8844a5.21776,5.21776,0,0,1,4.10449-.02844Zm0-2.65363a6.01668,6.01668,0,0,0-4.10449.02557V43.48236a5.2137,5.2137,0,0,1,4.10449-.029Zm0-2.65448a6.01252,6.01252,0,0,0-4.10449.02631v-1.8847a5.21787,5.21787,0,0,1,4.10449-.0285Zm0-2.65369a6.019,6.019,0,0,0-4.10449.02582v-1.8844a5.21776,5.21776,0,0,1,4.10449-.02844Zm0-2.65381a6.0174,6.0174,0,0,0-4.10449.0257V35.52a5.21787,5.21787,0,0,1,4.10449-.0285Zm0-2.6543a6.019,6.019,0,0,0-4.10449.02582V32.86621a5.21787,5.21787,0,0,1,4.10449-.0285Zm0-2.65381a6.01682,6.01682,0,0,0-4.10449.02576V30.2124a5.21985,5.21985,0,0,1,4.10449-.0285Zm0-2.65375a6.01668,6.01668,0,0,0-4.10449.02557V27.55811a5.21787,5.21787,0,0,1,4.10449-.0285Zm0-2.65436a6.01682,6.01682,0,0,0-4.10449.02576V24.9043a5.21761,5.21761,0,0,1,4.10449-.02856Zm0-2.65369a6.01569,6.01569,0,0,0-4.10449.02563V22.25043a5.21776,5.21776,0,0,1,4.10449-.02844Zm0-2.65393a6.0174,6.0174,0,0,0-4.10449.0257v-1.8847a5.21761,5.21761,0,0,1,4.10449-.02856Zm0-2.6543a6.01682,6.01682,0,0,0-4.10449.02576V16.94238a5.21761,5.21761,0,0,1,4.10449-.02856Zm5.23145,71.911a37.0153,37.0153,0,0,1-3.8454,1.74121h-.67706V90.33154h4.52246Zm0-1.08936H62.71777V87.50049h4.52246Zm0-2.83105H62.71777V82.686h4.52246Zm0-4.81445H62.71777v-1.376a6.56173,6.56173,0,0,1,4.52246.0105Zm0-2.122a7.36849,7.36849,0,0,0-4.52246-.00977V77.9472a6.56281,6.56281,0,0,1,4.52246.01056Zm0-2.65381a7.36224,7.36224,0,0,0-4.52246-.01019V75.2934a6.56206,6.56206,0,0,1,4.52246.0105Zm0-2.65393a7.3622,7.3622,0,0,0-4.52246-.00995V72.63916a6.56173,6.56173,0,0,1,4.52246.0105Zm0-2.65417a7.37119,7.37119,0,0,0-4.52246-.00964V69.98529a6.56281,6.56281,0,0,1,4.52246.01056Zm0-2.65381a7.36224,7.36224,0,0,0-4.52246-.01019V67.33142a6.55191,6.55191,0,0,1,4.52246.0105Zm0-2.654a7.35726,7.35726,0,0,0-4.52246-.01007v-1.898a6.56173,6.56173,0,0,1,4.52246.0105Zm0-2.65411a7.3712,7.3712,0,0,0-4.52246-.00964V62.02338a6.56281,6.56281,0,0,1,4.52246.01056Zm0-2.65381a7.36224,7.36224,0,0,0-4.52246-.01019V59.36914a6.56173,6.56173,0,0,1,4.52246.0105Zm0-2.65417a7.3712,7.3712,0,0,0-4.52246-.00983V56.71533a6.56173,6.56173,0,0,1,4.52246.0105Zm0-2.65381a7.3712,7.3712,0,0,0-4.52246-.00983V54.06146a6.56281,6.56281,0,0,1,4.52246.01056Zm0-2.65393a7.36224,7.36224,0,0,0-4.52246-.01019V51.40723a6.56173,6.56173,0,0,1,4.52246.0105Zm0-2.65417a7.3712,7.3712,0,0,0-4.52246-.00983V48.75342a6.56173,6.56173,0,0,1,4.52246.0105Zm0-2.65381a7.3712,7.3712,0,0,0-4.52246-.00983V46.09949a6.55965,6.55965,0,0,1,4.52246.01062Zm0-2.65393a7.36224,7.36224,0,0,0-4.52246-.01019V43.44531a6.56173,6.56173,0,0,1,4.52246.0105Zm0-2.65417a7.3712,7.3712,0,0,0-4.52246-.00983V40.7915a6.56173,6.56173,0,0,1,4.52246.0105Zm0-2.65381a7.3712,7.3712,0,0,0-4.52246-.00983V38.13763a6.56281,6.56281,0,0,1,4.52246.01056Zm0-2.65393a7.36224,7.36224,0,0,0-4.52246-.01019V35.4834a6.56173,6.56173,0,0,1,4.52246.0105Zm0-2.6543a7.36849,7.36849,0,0,0-4.52246-.00977v-1.898a6.56173,6.56173,0,0,1,4.52246.0105Zm0-2.65381a7.3712,7.3712,0,0,0-4.52246-.00964V30.17572a6.56281,6.56281,0,0,1,4.52246.01056Zm0-2.65381a7.36224,7.36224,0,0,0-4.52246-.01019V27.52148a6.56173,6.56173,0,0,1,4.52246.0105Zm0-2.6543a7.37119,7.37119,0,0,0-4.52246-.00964V24.86761a6.56281,6.56281,0,0,1,4.52246.01056Zm0-2.65387a7.36314,7.36314,0,0,0-4.52246-.01007V22.21381a6.56281,6.56281,0,0,1,4.52246.01056Zm0-2.65375a7.36539,7.36539,0,0,0-4.52246-.01007V19.55957a6.56173,6.56173,0,0,1,4.52246.0105Zm0-2.6543a7.3712,7.3712,0,0,0-4.52246-.00964V16.9057a6.56281,6.56281,0,0,1,4.52246.01056Zm.709,71.52118v-.00317h.006ZM71.92676,87.803q-1.3288.96973-2.74561,1.81958H67.94922V87.50049h3.97754Zm0-1.01147H67.94922V82.686h3.97754Zm0-4.81445H67.94922V80.59827a5.33433,5.33433,0,0,1,3.97754-.01172Zm0-2.15442a6.14025,6.14025,0,0,0-3.97754.01056V77.94446a5.33459,5.33459,0,0,1,3.97754-.01215Zm0-2.6543a6.13984,6.13984,0,0,0-3.97754.011v-1.8891a5.33816,5.33816,0,0,1,3.97754-.01184Zm0-2.65381a6.14628,6.14628,0,0,0-3.97754.011V72.63635a5.33433,5.33433,0,0,1,3.97754-.01172Zm0-2.65381a6.14025,6.14025,0,0,0-3.97754.01056V69.98254a5.33459,5.33459,0,0,1,3.97754-.01215Zm0-2.6543a6.13984,6.13984,0,0,0-3.97754.011V67.32825a5.33433,5.33433,0,0,1,3.97754-.01172Zm0-2.65387a6.13543,6.13543,0,0,0-3.97754.01093v-1.889a5.33433,5.33433,0,0,1,3.97754-.01172Zm0-2.65375a6.14025,6.14025,0,0,0-3.97754.01056V62.02063a5.33459,5.33459,0,0,1,3.97754-.01215Zm0-2.6543a6.13984,6.13984,0,0,0-3.97754.011V59.36633a5.33433,5.33433,0,0,1,3.97754-.01172Zm0-2.65381a6.14025,6.14025,0,0,0-3.97754.01056V56.71252a5.33459,5.33459,0,0,1,3.97754-.01215Zm0-2.65442a6.13743,6.13743,0,0,0-3.97754.01111V54.05872a5.33459,5.33459,0,0,1,3.97754-.01215Zm0-2.65369a6.13984,6.13984,0,0,0-3.97754.011V51.40442a5.33433,5.33433,0,0,1,3.97754-.01172Zm0-2.65381a6.14025,6.14025,0,0,0-3.97754.01056V48.75061a5.33459,5.33459,0,0,1,3.97754-.01215Zm0-2.6543a6.13984,6.13984,0,0,0-3.97754.011V46.09674a5.33459,5.33459,0,0,1,3.97754-.01208Zm0-2.65381a6.13984,6.13984,0,0,0-3.97754.011V43.4425a5.33433,5.33433,0,0,1,3.97754-.01172Zm0-2.65381a6.14025,6.14025,0,0,0-3.97754.01056V40.7887a5.33459,5.33459,0,0,1,3.97754-.01215Zm0-2.65442a6.13743,6.13743,0,0,0-3.97754.01111V38.13489a5.33462,5.33462,0,0,1,3.97754-.01221Zm0-2.65387a6.14108,6.14108,0,0,0-3.97754.01123V35.48059a5.33433,5.33433,0,0,1,3.97754-.01172Zm0-2.65363a6.14025,6.14025,0,0,0-3.97754.01056V32.82678a5.33459,5.33459,0,0,1,3.97754-.01215Zm0-2.6543a6.13984,6.13984,0,0,0-3.97754.011V30.173a5.33462,5.33462,0,0,1,3.97754-.01221Zm0-2.654a6.14108,6.14108,0,0,0-3.97754.01123V27.51868a5.33433,5.33433,0,0,1,3.97754-.01172Zm0-2.65363a6.14025,6.14025,0,0,0-3.97754.01056V24.86487a5.33459,5.33459,0,0,1,3.97754-.01215Zm0-2.65442a6.13743,6.13743,0,0,0-3.97754.01111V22.21106a5.33462,5.33462,0,0,1,3.97754-.01221Zm0-2.65387a6.14108,6.14108,0,0,0-3.97754.01123V19.55676a5.33433,5.33433,0,0,1,3.97754-.01172Zm0-2.65363a6.14025,6.14025,0,0,0-3.97754.01056V16.903a5.33459,5.33459,0,0,1,3.97754-.01215Zm0-2.6543a6.075,6.075,0,0,0-4.34473.15344,7.24447,7.24447,0,0,0-5.23242,0,5.96918,5.96918,0,0,0-4.44531-.10742V14.31006H71.92676ZM75.71484,84.6311q-1.18506,1.13168-2.46442,2.1604h-.61469V82.686h3.0791Zm0-2.65405h-3.0791V80.6015a3.32077,3.32077,0,0,1,3.0791-.01947Zm0-2.184a4.088,4.088,0,0,0-3.0791.0177V77.94727a3.32347,3.32347,0,0,1,3.0791-.01953Zm0-2.65381a4.08827,4.08827,0,0,0-3.0791.01721V75.2934a3.32077,3.32077,0,0,1,3.0791-.01947Zm0-2.65417a4.08741,4.08741,0,0,0-3.0791.01752v-1.863a3.32077,3.32077,0,0,1,3.0791-.01947Zm0-2.65393a4.088,4.088,0,0,0-3.0791.0177V69.98535a3.32347,3.32347,0,0,1,3.0791-.01953Zm0-2.65381a4.08827,4.08827,0,0,0-3.0791.01721v-1.8631a3.32077,3.32077,0,0,1,3.0791-.01947Zm0-2.6543a4.088,4.088,0,0,0-3.0791.0177v-1.8631a3.32077,3.32077,0,0,1,3.0791-.01947Zm0-2.65369a4.08741,4.08741,0,0,0-3.0791.01752V62.02338a3.32077,3.32077,0,0,1,3.0791-.01947Zm0-2.65442a4.088,4.088,0,0,0-3.0791.0177v-1.8631a3.32077,3.32077,0,0,1,3.0791-.01947Zm0-2.65381a4.088,4.088,0,0,0-3.0791.0177v-1.864a3.32347,3.32347,0,0,1,3.0791-.01862Zm0-2.65381a4.08827,4.08827,0,0,0-3.0791.01721v-1.8631a3.32077,3.32077,0,0,1,3.0791-.01947Zm0-2.65417a4.08741,4.08741,0,0,0-3.0791.01752v-1.863a3.32077,3.32077,0,0,1,3.0791-.01947Zm0-2.65393a4.088,4.088,0,0,0-3.0791.0177V48.75305a3.32472,3.32472,0,0,1,3.0791-.01868Zm0-2.65381a4.08827,4.08827,0,0,0-3.0791.01721v-1.8631a3.32077,3.32077,0,0,1,3.0791-.01947Zm0-2.6543a4.088,4.088,0,0,0-3.0791.0177v-1.8631a3.32077,3.32077,0,0,1,3.0791-.01947Zm0-2.65369a4.08741,4.08741,0,0,0-3.0791.01752V40.79132a3.32127,3.32127,0,0,1,3.0791-.01886Zm0-2.65393a4.08447,4.08447,0,0,0-3.0791.01709v-1.863a3.32077,3.32077,0,0,1,3.0791-.01947Zm0-2.6543a4.088,4.088,0,0,0-3.0791.0177v-1.8631a3.32077,3.32077,0,0,1,3.0791-.01947Zm0-2.65381a4.088,4.088,0,0,0-3.0791.0177V32.82941a3.32127,3.32127,0,0,1,3.0791-.01886Zm0-2.65381a4.08447,4.08447,0,0,0-3.0791.01709v-1.863a3.32077,3.32077,0,0,1,3.0791-.01947Zm0-2.6543a4.088,4.088,0,0,0-3.0791.0177V27.52185a3.3197,3.3197,0,0,1,3.0791-.01941Zm0-2.65381a4.088,4.088,0,0,0-3.0791.0177V24.86743a3.3213,3.3213,0,0,1,3.0791-.01929Zm0-2.65381a4.08855,4.08855,0,0,0-3.0791.017V22.21381a3.32077,3.32077,0,0,1,3.0791-.01947Zm0-2.65417a4.08741,4.08741,0,0,0-3.0791.01752V19.56a3.32077,3.32077,0,0,1,3.0791-.01947Zm0-2.65393a4.088,4.088,0,0,0-3.0791.0177V16.90552a3.3213,3.3213,0,0,1,3.0791-.01929Zm.709,65.18524V80.59656a3.16694,3.16694,0,0,1,1.54883-.39929h.35449v-.709h-.35449a3.92863,3.92863,0,0,0-1.54883.31683V77.94226a3.16886,3.16886,0,0,1,1.54883-.39929h.35449v-.709h-.35449a3.9268,3.9268,0,0,0-1.54883.31726V75.28845a3.16694,3.16694,0,0,1,1.54883-.39929h.35449v-.709h-.35449a3.92863,3.92863,0,0,0-1.54883.31683V72.63464a3.16694,3.16694,0,0,1,1.54883-.39929h.35449v-.709h-.35449a3.92863,3.92863,0,0,0-1.54883.31683V69.98035a3.16886,3.16886,0,0,1,1.54883-.39929h.35449v-.709h-.35449a3.9268,3.9268,0,0,0-1.54883.31726V67.32654a3.16694,3.16694,0,0,1,1.54883-.39929h.35449v-.709h-.35449a3.92863,3.92863,0,0,0-1.54883.31683V64.67273a3.16694,3.16694,0,0,1,1.54883-.39929h.35449v-.709h-.35449a3.92863,3.92863,0,0,0-1.54883.31683V62.01843a3.16694,3.16694,0,0,1,1.54883-.39929h.35449v-.709h-.35449a3.92863,3.92863,0,0,0-1.54883.31683V59.36462a3.16694,3.16694,0,0,1,1.54883-.39929h.35449v-.709h-.35449a3.92863,3.92863,0,0,0-1.54883.31683V56.71082a3.16694,3.16694,0,0,1,1.54883-.39929h.35449v-.709h-.35449a3.92863,3.92863,0,0,0-1.54883.31683V54.05652a3.16694,3.16694,0,0,1,1.54883-.39929h.35449v-.709h-.35449a3.92863,3.92863,0,0,0-1.54883.31683V51.40271a3.16694,3.16694,0,0,1,1.54883-.39929h.35449v-.709h-.35449a3.92863,3.92863,0,0,0-1.54883.31683V48.7489a3.16694,3.16694,0,0,1,1.54883-.39929h.35449v-.709h-.35449a3.92863,3.92863,0,0,0-1.54883.31683V46.0946a3.16694,3.16694,0,0,1,1.54883-.39929h.35449v-.709h-.35449a3.92863,3.92863,0,0,0-1.54883.31683V43.4408a3.16694,3.16694,0,0,1,1.54883-.39929h.35449v-.709h-.35449a3.92863,3.92863,0,0,0-1.54883.31683V40.787a3.16694,3.16694,0,0,1,1.54883-.39929h.35449v-.709h-.35449a3.92863,3.92863,0,0,0-1.54883.31683V38.13269a3.16694,3.16694,0,0,1,1.54883-.39929h.35449v-.709h-.35449a3.92863,3.92863,0,0,0-1.54883.31683V35.47888a3.16694,3.16694,0,0,1,1.54883-.39929h.35449v-.709h-.35449a3.92863,3.92863,0,0,0-1.54883.31683V32.82507a3.08288,3.08288,0,0,1,.98932-.32477L77.625,32.75l.00427-.007a37.11865,37.11865,0,0,1,9.63245,24.97968c0,.1601-.00684.3186-.01208.47748a4.20395,4.20395,0,0,0-4.734,2.83746,2.92334,2.92334,0,1,0-.71484,5.75781h4.32739A37.22519,37.22519,0,0,1,76.42383,83.93683Zm14.67285-17.8504h-9.2959a2.21436,2.21436,0,1,1,0-4.42871,2.18725,2.18725,0,0,1,.82227.15967l.38281.15479.09473-.40234a3.5423,3.5423,0,0,1,6.68359-.62256l.13477.30078.30957-.11182a2.551,2.551,0,1,1,.86816,4.9502Z"/></svg>